<svg version="1.0" xmlns="http://www.w3.org/2000/svg"
 width="309.000000pt" height="212.000000pt" viewBox="0 0 309.000000 212.000000"
 preserveAspectRatio="xMidYMid meet">

<g transform="translate(0.000000,212.000000) scale(0.100000,-0.100000)"
fill="#000000" stroke="none">
<path d="M509 1722 c-97 -64 -178 -154 -228 -256 -52 -106 -91 -296 -61 -296
10 0 16 20 24 91 7 58 29 125 69 209 40 84 157 203 245 248 34 18 62 37 62 43
0 21 -42 6 -111 -39z"/>
<path d="M1134 1762 c4 -6 34 -26 68 -44 170 -91 297 -280 316 -473 8 -76 32
-105 32 -38 -1 184 -130 408 -295 512 -65 41 -135 66 -121 43z"/>
<path d="M814 1660 c-156 -22 -302 -159 -326 -305 -16 -96 -21 -226 -9 -238
16 -16 13 -108 -4 -131 -8 -11 -15 -41 -15 -66 0 -55 37 -112 85 -130 17 -7
40 -17 52 -22 12 -6 29 -8 37 -5 14 6 16 40 16 272 l0 265 -23 0 c-13 0 -28
-5 -34 -11 -6 -6 -22 -17 -35 -23 -20 -10 -23 -20 -26 -73 -2 -44 -7 -63 -19
-67 -13 -6 -15 6 -11 95 3 77 8 104 19 113 9 6 25 32 37 58 11 25 40 68 63 93
167 181 477 129 578 -96 10 -22 26 -46 37 -53 15 -11 19 -31 22 -110 4 -84 2
-96 -12 -96 -13 0 -16 11 -16 54 0 51 -2 56 -39 85 -21 17 -48 31 -60 31 -21
0 -21 -2 -21 -270 l0 -270 24 0 c14 0 28 4 31 10 3 6 14 10 24 10 10 0 30 9
44 20 14 11 28 20 31 20 14 0 4 -67 -15 -106 -24 -51 -69 -82 -133 -90 -39 -6
-52 -3 -77 15 -34 25 -67 24 -83 -2 -15 -24 3 -51 40 -57 l29 -6 -3 -72 c-2
-39 -9 -93 -17 -119 -19 -63 -12 -67 10 -6 10 26 20 86 24 133 l6 85 65 5 c72
6 92 15 133 58 46 48 56 92 50 217 -3 61 -9 114 -14 120 -12 13 -11 125 1 125
17 0 11 151 -10 235 -26 102 -72 172 -151 230 -87 64 -195 90 -305 75z"/>
<path d="M797 1513 c-83 -28 -180 -135 -163 -179 9 -24 24 -16 31 17 9 41 82
113 129 129 21 7 66 10 101 8 101 -6 171 -61 208 -160 3 -10 8 -10 16 -2 10 9
9 19 -2 46 -49 116 -200 183 -320 141z"/>
<path d="M703 1293 c-10 -4 -13 -65 -13 -264 0 -249 1 -259 19 -259 48 0 51
16 51 256 0 127 -4 233 -10 243 -11 21 -29 30 -47 24z"/>
<path d="M1021 1283 c-21 -18 -21 -23 -19 -257 3 -207 5 -240 19 -249 9 -6 24
-7 33 -4 14 6 16 34 16 255 0 271 -4 292 -49 255z"/>
<path d="M2360 1104 c0 -33 -2 -36 -23 -30 -14 3 -33 -1 -45 -10 -18 -12 -22
-25 -22 -68 0 -64 18 -85 73 -83 l37 1 0 113 c0 69 -4 113 -10 113 -5 0 -10
-16 -10 -36z m-6 -70 c11 -28 6 -81 -8 -93 -34 -28 -67 29 -47 82 12 30 45 37
55 11z"/>
<path d="M1685 1114 c-10 -10 -15 -29 -13 -48 2 -24 11 -35 38 -48 63 -30 72
-45 44 -72 -21 -22 -31 -20 -58 9 -21 23 -36 24 -36 3 0 -19 42 -48 69 -48 37
0 61 23 61 59 0 28 -26 61 -48 61 -7 0 -21 9 -32 20 -16 16 -18 25 -10 40 14
26 46 26 60 0 12 -23 30 -27 30 -6 0 41 -73 62 -105 30z"/>
<path d="M2445 1110 c-40 -44 -26 -171 20 -192 33 -15 74 -2 87 27 16 36 0 45
-24 12 -23 -32 -39 -34 -61 -9 -23 25 -23 124 -1 146 25 25 54 18 67 -16 8
-24 27 -23 27 0 0 48 -81 70 -115 32z"/>
<path d="M2850 1095 c0 -9 -7 -18 -16 -22 -15 -6 -15 -7 -1 -18 11 -8 17 -31
19 -70 2 -41 8 -61 20 -69 9 -5 21 -6 25 -2 4 5 2 11 -4 13 -9 3 -13 25 -13
63 0 37 5 60 13 64 10 5 10 7 0 12 -7 3 -13 14 -13 25 0 10 -7 19 -15 19 -8 0
-15 -7 -15 -15z"/>
<path d="M1846 1059 c-52 -41 -26 -149 37 -149 37 0 57 30 57 83 0 34 -6 53
-20 67 -25 25 -41 25 -74 -1z m68 -40 c18 -53 -15 -107 -49 -79 -15 13 -21 90
-8 104 15 15 48 0 57 -25z"/>
<path d="M1980 1015 c0 -91 10 -106 63 -101 l42 4 3 76 c2 63 0 76 -13 76 -12
0 -15 -12 -15 -59 0 -42 -5 -62 -16 -72 -25 -20 -44 14 -44 77 0 29 -4 56 -10
59 -6 4 -10 -18 -10 -60z"/>
<path d="M2155 1071 c-27 -6 -29 -9 -33 -61 -1 -30 0 -65 3 -77 11 -44 24 -22
27 45 3 64 4 67 28 67 24 0 25 -3 28 -67 4 -92 22 -86 22 7 0 63 -3 76 -19 85
-11 5 -21 9 -23 9 -2 -1 -16 -4 -33 -8z"/>
<path d="M2618 1069 c-10 -5 -18 -17 -18 -24 0 -17 16 -20 25 -5 12 19 45 11
45 -10 0 -15 -7 -20 -24 -20 -24 0 -56 -32 -56 -55 1 -26 22 -40 65 -41 l45
-2 0 68 c0 90 -29 121 -82 89z m52 -103 c0 -24 -23 -41 -41 -30 -10 6 -12 38
-2 47 3 4 15 7 25 7 12 0 18 -7 18 -24z"/>
<path d="M2767 1072 l-28 -3 3 -76 c2 -50 7 -78 16 -81 9 -3 12 14 12 61 0 55
3 67 22 79 25 17 15 25 -25 20z"/>
</g>
</svg>